<svg width="0" height="0" style="position:absolute" aria-hidden="true" focusable="false">
  <defs>
    <radialGradient id="fl-glow" cx="50%" cy="42%" r="55%">
      <stop offset="0" stop-color="#00E5C0" stop-opacity="0.45"/>
      <stop offset="1" stop-color="#00E5C0" stop-opacity="0"/>
    </radialGradient>

    <!-- Logo Floatech — símbolo "Menisco": ponto em equilíbrio sobre arco côncavo.
         Nada se toca: a flutuação vem do vazio calibrado. Ciano só no ponto. -->
    <symbol id="logo-floatech" viewBox="0 0 40 40">
      <rect x="0.6" y="0.6" width="38.8" height="38.8" rx="11" fill="#0E1417" stroke="#1F2024" stroke-width="1.2"/>
      <circle cx="20" cy="15.5" r="9" fill="url(#fl-glow)"/>
      <path d="M10 25 Q20 32.4 30 25" stroke="#F5F6F7" stroke-width="3" stroke-linecap="round" fill="none"/>
      <circle cx="20" cy="15.5" r="4" fill="#00E5C0"/>
    </symbol>

    <symbol id="i-grid" viewBox="0 0 24 24"><rect x="3" y="3" width="7" height="7" rx="1.5"/><rect x="14" y="3" width="7" height="7" rx="1.5"/><rect x="14" y="14" width="7" height="7" rx="1.5"/><rect x="3" y="14" width="7" height="7" rx="1.5"/></symbol>
    <symbol id="i-chart" viewBox="0 0 24 24"><line x1="3" y1="21" x2="21" y2="21"/><rect x="5" y="11" width="3.5" height="8" rx="1"/><rect x="10.25" y="5" width="3.5" height="14" rx="1"/><rect x="15.5" y="14" width="3.5" height="5" rx="1"/></symbol>
    <symbol id="i-bell" viewBox="0 0 24 24"><path d="M18 8a6 6 0 0 0-12 0c0 7-3 9-3 9h18s-3-2-3-9"/><path d="M13.73 21a2 2 0 0 1-3.46 0"/></symbol>
    <symbol id="i-doc" viewBox="0 0 24 24"><path d="M14 2H6a2 2 0 0 0-2 2v16a2 2 0 0 0 2 2h12a2 2 0 0 0 2-2V8z"/><polyline points="14 2 14 8 20 8"/><line x1="8" y1="13" x2="16" y2="13"/><line x1="8" y1="17" x2="16" y2="17"/></symbol>
    <symbol id="i-cog" viewBox="0 0 24 24"><circle cx="12" cy="12" r="3"/><path d="M19.4 15a1.65 1.65 0 0 0 .33 1.82l.06.06a2 2 0 1 1-2.83 2.83l-.06-.06a1.65 1.65 0 0 0-1.82-.33 1.65 1.65 0 0 0-1 1.51V21a2 2 0 0 1-4 0v-.09A1.65 1.65 0 0 0 9 19.4a1.65 1.65 0 0 0-1.82.33l-.06.06a2 2 0 1 1-2.83-2.83l.06-.06a1.65 1.65 0 0 0 .33-1.82 1.65 1.65 0 0 0-1.51-1H3a2 2 0 0 1 0-4h.09A1.65 1.65 0 0 0 4.6 9a1.65 1.65 0 0 0-.33-1.82l-.06-.06a2 2 0 1 1 2.83-2.83l.06.06a1.65 1.65 0 0 0 1.82.33H9a1.65 1.65 0 0 0 1-1.51V3a2 2 0 0 1 4 0v.09a1.65 1.65 0 0 0 1 1.51 1.65 1.65 0 0 0 1.82-.33l.06-.06a2 2 0 1 1 2.83 2.83l-.06.06a1.65 1.65 0 0 0-.33 1.82V9a1.65 1.65 0 0 0 1.51 1H21a2 2 0 0 1 0 4h-.09a1.65 1.65 0 0 0-1.51 1z"/></symbol>
    <symbol id="i-logout" viewBox="0 0 24 24"><path d="M9 21H5a2 2 0 0 1-2-2V5a2 2 0 0 1 2-2h4"/><polyline points="16 17 21 12 16 7"/><line x1="21" y1="12" x2="9" y2="12"/></symbol>
    <symbol id="i-refresh" viewBox="0 0 24 24"><polyline points="23 4 23 10 17 10"/><polyline points="1 20 1 14 7 14"/><path d="M3.51 9a9 9 0 0 1 14.85-3.36L23 10M1 14l4.64 4.36A9 9 0 0 0 20.49 15"/></symbol>
    <symbol id="i-search" viewBox="0 0 24 24"><circle cx="11" cy="11" r="8"/><line x1="21" y1="21" x2="16.65" y2="16.65"/></symbol>
    <symbol id="i-sun" viewBox="0 0 24 24"><circle cx="12" cy="12" r="5"/><line x1="12" y1="1" x2="12" y2="3"/><line x1="12" y1="21" x2="12" y2="23"/><line x1="4.2" y1="4.2" x2="5.6" y2="5.6"/><line x1="18.4" y1="18.4" x2="19.8" y2="19.8"/><line x1="1" y1="12" x2="3" y2="12"/><line x1="21" y1="12" x2="23" y2="12"/><line x1="4.2" y1="19.8" x2="5.6" y2="18.4"/><line x1="18.4" y1="5.6" x2="19.8" y2="4.2"/></symbol>
    <symbol id="i-moon" viewBox="0 0 24 24"><path d="M21 12.79A9 9 0 1 1 11.21 3 7 7 0 0 0 21 12.79z"/></symbol>
    <symbol id="i-send" viewBox="0 0 24 24"><line x1="22" y1="2" x2="11" y2="13"/><polygon points="22 2 15 22 11 13 2 9 22 2"/></symbol>
    <symbol id="i-calendar" viewBox="0 0 24 24"><rect x="3" y="4" width="18" height="18" rx="2"/><line x1="16" y1="2" x2="16" y2="6"/><line x1="8" y1="2" x2="8" y2="6"/><line x1="3" y1="10" x2="21" y2="10"/></symbol>
    <symbol id="i-clip" viewBox="0 0 24 24"><path d="M21.44 11.05l-9.19 9.19a6 6 0 0 1-8.49-8.49l9.19-9.19a4 4 0 0 1 5.66 5.66l-9.2 9.19a2 2 0 0 1-2.83-2.83l8.49-8.48"/></symbol>
    <symbol id="i-ai" viewBox="0 0 24 24"><path d="M12 3l1.9 5.1L19 10l-5.1 1.9L12 17l-1.9-5.1L5 10l5.1-1.9L12 3z"/><path d="M19 15l.7 1.8L21.5 17.5l-1.8.7L19 20l-.7-1.8L16.5 17.5l1.8-.7z"/></symbol>
    <symbol id="i-x" viewBox="0 0 24 24"><line x1="18" y1="6" x2="6" y2="18"/><line x1="6" y1="6" x2="18" y2="18"/></symbol>
    <symbol id="i-download" viewBox="0 0 24 24"><path d="M21 15v4a2 2 0 0 1-2 2H5a2 2 0 0 1-2-2v-4"/><polyline points="7 10 12 15 17 10"/><line x1="12" y1="15" x2="12" y2="3"/></symbol>
    <symbol id="i-check" viewBox="0 0 24 24"><polyline points="20 6 9 17 4 12"/></symbol>
    <symbol id="i-trash" viewBox="0 0 24 24"><polyline points="3 6 5 6 21 6"/><path d="M19 6v14a2 2 0 0 1-2 2H7a2 2 0 0 1-2-2V6m3 0V4a2 2 0 0 1 2-2h4a2 2 0 0 1 2 2v2"/></symbol>
    <symbol id="i-mail" viewBox="0 0 24 24"><path d="M4 4h16a2 2 0 0 1 2 2v12a2 2 0 0 1-2 2H4a2 2 0 0 1-2-2V6a2 2 0 0 1 2-2z"/><polyline points="22 7 12 14 2 7"/></symbol>
    <symbol id="i-folder" viewBox="0 0 24 24"><path d="M22 19a2 2 0 0 1-2 2H4a2 2 0 0 1-2-2V5a2 2 0 0 1 2-2h5l2 3h9a2 2 0 0 1 2 2z"/></symbol>
    <symbol id="i-print" viewBox="0 0 24 24"><polyline points="6 9 6 2 18 2 18 9"/><path d="M6 18H4a2 2 0 0 1-2-2v-5a2 2 0 0 1 2-2h16a2 2 0 0 1 2 2v5a2 2 0 0 1-2 2h-2"/><rect x="6" y="14" width="12" height="8"/></symbol>
    <symbol id="i-alert" viewBox="0 0 24 24"><path d="M10.29 3.86L1.82 18a2 2 0 0 0 1.71 3h16.94a2 2 0 0 0 1.71-3L13.71 3.86a2 2 0 0 0-3.42 0z"/><line x1="12" y1="9" x2="12" y2="13"/><line x1="12" y1="17" x2="12.01" y2="17"/></symbol>
    <symbol id="i-inbox" viewBox="0 0 24 24"><polyline points="22 12 16 12 14 15 10 15 8 12 2 12"/><path d="M5.45 5.11L2 12v6a2 2 0 0 0 2 2h16a2 2 0 0 0 2-2v-6l-3.45-6.89A2 2 0 0 0 16.76 4H7.24a2 2 0 0 0-1.79 1.11z"/></symbol>
    <symbol id="i-clock" viewBox="0 0 24 24"><circle cx="12" cy="12" r="10"/><polyline points="12 6 12 12 16 14"/></symbol>
    <symbol id="i-export" viewBox="0 0 24 24"><path d="M21 15v4a2 2 0 0 1-2 2H5a2 2 0 0 1-2-2v-4"/><polyline points="17 8 12 3 7 8"/><line x1="12" y1="3" x2="12" y2="15"/></symbol>
    <symbol id="i-plus" viewBox="0 0 24 24"><line x1="12" y1="5" x2="12" y2="19"/><line x1="5" y1="12" x2="19" y2="12"/></symbol>
    <symbol id="i-pencil" viewBox="0 0 24 24"><path d="M12 20h9"/><path d="M16.5 3.5a2.12 2.12 0 0 1 3 3L7 19l-4 1 1-4z"/></symbol>
    <symbol id="i-check-circle" viewBox="0 0 24 24"><path d="M22 11.08V12a10 10 0 1 1-5.93-9.14"/><polyline points="22 4 12 14.01 9 11.01"/></symbol>
    <symbol id="i-shield" viewBox="0 0 24 24"><path d="M12 22s8-4 8-10V5l-8-3-8 3v7c0 6 8 10 8 10z"/></symbol>
    <symbol id="i-copy" viewBox="0 0 24 24"><rect x="9" y="9" width="13" height="13" rx="2"/><path d="M5 15H4a2 2 0 0 1-2-2V4a2 2 0 0 1 2-2h9a2 2 0 0 1 2 2v1"/></symbol>
    <symbol id="i-users" viewBox="0 0 24 24"><path d="M17 21v-2a4 4 0 0 0-4-4H5a4 4 0 0 0-4 4v2"/><circle cx="9" cy="7" r="4"/><path d="M23 21v-2a4 4 0 0 0-3-3.87"/><path d="M16 3.13a4 4 0 0 1 0 7.75"/></symbol>
    <symbol id="i-chevron-down" viewBox="0 0 24 24"><polyline points="6 9 12 15 18 9"/></symbol>
    <symbol id="i-shield-alert" viewBox="0 0 24 24"><path d="M12 22s8-4 8-10V5l-8-3-8 3v7c0 6 8 10 8 10z"/><line x1="12" y1="8" x2="12" y2="12"/><line x1="12" y1="16" x2="12.01" y2="16"/></symbol>
  </defs>
</svg>
